<svg xmlns="http://www.w3.org/2000/svg" xmlns:xlink="http://www.w3.org/1999/xlink" viewBox="0,0,256,256" width="32px" height="32px" fill-rule="nonzero"><g fill="#ff0052" fill-rule="nonzero" stroke="none" stroke-width="1" stroke-linecap="butt" stroke-linejoin="miter" stroke-miterlimit="10" stroke-dasharray="" stroke-dashoffset="0" font-family="none" font-weight="none" font-size="none" text-anchor="none" style="mix-blend-mode: normal"><g transform="scale(8,8)"><path d="M7.40039,3c-0.9,3.1 -0.2,5.99961 0,6.59961c0.8,-0.3 2.49883,-1.89922 0.29883,-3.69922c1.3,0.4 2.00156,1.5 2.10156,2.5c0.2,1.4 -1.70117,2.59961 -2.70117,2.59961c-1.6,0.1 -3.09961,1.7 -3.09961,3l1.09961,-0.5c-0.3,0.9 -0.60039,1.80039 -0.40039,2.90039l1.30078,-0.30078c-0.8,1.3 -0.50039,3.30078 -0.40039,4.30078l1.30078,-0.70117l0.40039,1.80078l1.19922,-0.30078l0.5,1.5l1.30078,-1.09961l-1,0.40039l-0.40039,-1.69922l-0.90039,0.29883l-0.30078,-1.69922l-1.39844,0.40039c-0.2,-1.3 0.09922,-2.50117 0.69922,-3.70117l-1.5,-0.40039c0.5,-2.2 1.79922,-2.59922 3.19922,-2.69922c0.5,1.6 0.30039,2.89961 -0.09961,4.09961c4.1,2.9 3.89961,5.99961 4.09961,7.59961c0.2,1.5 0.20078,4.50039 1.30078,4.90039v-1.5l0.30078,-0.40039l0.29883,0.60156l0.5,-0.80078l0.59961,1.09961l0.40039,-1.19922l0.5,0.79883l0.30078,-0.59961l0.29883,0.40039v1.5c1.1,-0.4 1.10078,-3.40039 1.30078,-4.90039c0.2,-1.6 -0.00039,-4.69961 4.09961,-7.59961c-0.4,-1.2 -0.59961,-2.49961 -0.09961,-4.09961c1.4,0.2 2.69922,0.49922 3.19922,2.69922l-1.5,0.40039c0.6,1.2 0.90117,2.39922 0.70117,3.69922l-1.40039,-0.39844l-0.5,1.79883l-0.90039,-0.40039l-0.40039,1.70117l-1,-0.40039l1.30078,1.09961l0.40039,-1.40039l1.19922,0.30078l0.40039,-1.80078l1.30078,0.70117c0,-1 0.39961,-2.90078 -0.40039,-4.30078l1.29883,0.30078c0.2,-1.1 -0.09844,-2.00039 -0.39844,-2.90039l1.19922,0.5c0,-1.3 -1.49961,-2.9 -3.09961,-3c-1,-0.1 -2.90117,-1.29961 -2.70117,-2.59961c0.1,-1 0.80156,-2.2 2.10156,-2.5c-2.2,1.9 -0.50117,3.39922 0.29883,3.69922c0.2,-0.6 0.9,-3.49961 0,-6.59961c-2,1.2 -4.39961,3.3 -4.59961,7.5l-2.80078,1.80078l-0.19922,4.69922l5.19922,-2.80078l0.40039,0.40039l-0.90039,0.20117l-2.19922,2l-0.80078,-0.30078l-1.39844,2.5l-0.20117,6l1.09961,0.80078l-1.59961,0.79883l-1.59961,-0.79883l1.09961,-0.80078l-0.19922,-6.09961l-1.40039,-2.5l-0.80078,0.29883l-2.19922,-2l-0.90039,-0.19922l0.40039,-0.40039l5,2.90039l-0.19922,-4.69922l-2.80078,-1.80078c-0.2,-4.2 -2.49961,-6.3 -4.59961,-7.5zM8.19922,13.5c-0.9,0.1 -1.79883,0.40039 -2.29883,1.40039c0.7,0.2 1.19922,0.29922 2.19922,0.69922c0,-0.6 0.09961,-1.39961 0.09961,-2.09961zM22.80078,13.5c0,0.7 0.09961,1.49961 0.09961,2.09961c1,-0.4 1.49922,-0.49922 2.19922,-0.69922c-0.5,-1 -1.29883,-1.30039 -2.29883,-1.40039zM8.09961,15.80078c-1,0.7 -1.4,1.69844 -1.5,2.89844c0.6,-0.2 1.20039,-0.5 1.90039,-0.5c-0.3,-0.7 -0.40039,-1.49844 -0.40039,-2.39844zM22.90039,15.80078c0,0.9 -0.10039,1.69844 -0.40039,2.39844c0.7,0 1.30039,0.3 1.90039,0.5c-0.1,-1.2 -0.5,-2.19844 -1.5,-2.89844zM8.59961,18.19922c-0.2,0.5 -0.29883,1.00117 -0.29883,1.70117l1.19922,-0.30078c-0.3,-0.5 -0.60039,-0.90039 -0.90039,-1.40039zM9.5,19.59961c0,0.6 -0.00039,1.09961 0.09961,1.59961c0.4,-0.1 0.79961,-0.19844 1.09961,-0.39844c-0.4,-0.3 -0.79922,-0.80117 -1.19922,-1.20117zM22.40039,18.19922c-0.3,0.5 -0.60039,0.90039 -0.90039,1.40039l1.19922,0.30078c0,-0.7 -0.09883,-1.20117 -0.29883,-1.70117zM21.5,19.59961c-0.4,0.4 -0.79922,0.90117 -1.19922,1.20117c0.3,0.2 0.69961,0.29844 1.09961,0.39844c0.1,-0.5 0.09961,-0.99961 0.09961,-1.59961zM10.69922,21c0.1,0.3 0.10117,0.69961 0.20117,1.09961l0.79883,-0.5c-0.4,-0.2 -0.7,-0.39961 -1,-0.59961zM20.30078,21c-0.3,0.2 -0.6,0.39961 -1,0.59961l0.79883,0.5c0.1,-0.4 0.10117,-0.79961 0.20117,-1.09961z"></path></g></g></svg>